<svg xmlns="http://www.w3.org/2000/svg" viewBox="0 0 512 512">
  <rect width="512" height="512" rx="96" fill="#0b3d2e" />
  <g fill="none" stroke="#f2e9d8" stroke-width="22" stroke-linecap="round" stroke-linejoin="round">
    <!-- Stylised classic Beetle silhouette -->
    <path d="M96 320 q12 -120 160 -120 q120 0 150 70 q34 6 34 44 q0 26 -26 26 H120 q-30 0 -30 -28 z" fill="#f2e9d8" stroke="none"/>
    <circle cx="180" cy="338" r="42" fill="#0b3d2e" stroke="#f2e9d8"/>
    <circle cx="180" cy="338" r="14" fill="#f2e9d8" stroke="none"/>
    <circle cx="356" cy="338" r="42" fill="#0b3d2e" stroke="#f2e9d8"/>
    <circle cx="356" cy="338" r="14" fill="#f2e9d8" stroke="none"/>
  </g>
  <g fill="#c8553d">
    <!-- wrench accent -->
    <path d="M300 150 a34 34 0 1 0 40 40 l44 44 22 -22 -44 -44 a34 34 0 0 0 -40 -40 l20 20 -10 24 -24 10 -20 -20z"/>
  </g>
</svg>
